<?xml version="1.0" standalone="no"?>
<!DOCTYPE svg PUBLIC "-//W3C//DTD SVG 1.1//EN" 
  "http://www.w3.org/Graphics/SVG/1.1/DTD/svg11.dtd">
<svg width="2133" height="748" viewBox="0 0 2133 748"
     xmlns="http://www.w3.org/2000/svg" version="1.1">
<desc>soccer_ball_designer.blend, (Blender 3.1.2)</desc>
<polygon stroke="black" stroke-width="1" fill="rgb(204, 204, 204)" fill-opacity="0.25" points="1365.863,643.991 1532.333,669.537 1629.371,530.079 1557.116,376.315 1403.453,379.385 1319.065,497.408 " />
<polygon stroke="black" stroke-width="1" fill="rgb(204, 204, 204)" fill-opacity="0.25" points="1055.437,552.487 1093.421,709.781 1248.634,755.534 1365.863,643.991 1319.065,497.408 1183.566,462.408 " />
<polygon stroke="black" stroke-width="1" fill="rgb(204, 204, 204)" fill-opacity="0.25" points="1049.273,225.879 909.387,310.200 912.469,473.504 1055.437,552.487 1183.566,462.408 1176.939,320.006 " />
<polygon stroke="black" stroke-width="1" fill="rgb(204, 204, 204)" fill-opacity="0.25" points="1359.979,114.255 1233.968,7.621 1078.615,63.433 1049.273,225.879 1176.939,320.006 1310.302,266.248 " />
<polygon stroke="black" stroke-width="1" fill="rgb(204, 204, 204)" fill-opacity="0.25" points="1557.116,376.315 1629.371,228.299 1528.941,90.896 1359.979,114.255 1310.302,266.248 1403.453,379.385 " />
<polygon stroke="black" stroke-width="1" fill="rgb(204, 204, 204)" fill-opacity="0.25" points="1319.065,497.408 1403.453,379.385 1310.302,266.248 1176.939,320.006 1183.566,462.408 " />

</svg>
